<svg width="251" height="48" viewBox="0 0 251 48" fill="none" xmlns="http://www.w3.org/2000/svg">
<g clip-path="url(#clip0_718_21790)">
<rect width="48" height="48" rx="24" fill="#58DAC5"/>
<path d="M16.9558 14.4747H16.1558C14.6376 14.4747 13.8082 15.3307 13.8082 17.0432V25.3018C13.8082 27.4281 13.09 28.1743 11.4051 28.1743C10.0798 28.1743 9.00289 27.5938 8.14644 26.5445C8.06333 26.4343 6.32422 27.2623 6.32422 29.3067C6.32422 31.5161 8.39444 32.8698 12.2353 32.8698C16.902 32.8698 19.3616 30.5218 19.3616 25.3849V17.0432C19.3589 15.3329 18.5304 14.4747 16.9558 14.4747ZM35.5558 18.5072C31.0256 18.5072 28.0153 21.3796 28.0153 25.6627C28.0153 30.0547 30.9144 32.8725 35.4722 32.8725C40.0011 32.8725 42.9833 30.0547 42.9833 25.6912C42.986 21.3796 40.03 18.5072 35.5558 18.5072ZM35.5002 28.8089C33.7318 28.8089 32.5171 27.5112 32.5171 25.6605C32.5171 23.8383 33.7616 22.5396 35.5002 22.5396C37.2389 22.5396 38.4829 23.8383 38.4829 25.6885C38.4833 27.4832 37.2131 28.8089 35.5007 28.8089H35.5002ZM24.1878 18.6449H23.6344C22.282 18.6449 21.2602 19.2796 21.2602 21.2138V30.0521C21.2602 32.0134 22.2549 32.6214 23.6904 32.6214H24.2433C25.5967 32.6214 26.5629 31.9578 26.5629 30.0521V21.2138C26.5629 19.2254 25.6247 18.6449 24.1878 18.6449ZM23.8842 12.2383C22.1713 12.2383 21.0944 13.2054 21.0944 14.7245C21.0944 16.2703 22.1998 17.2369 23.9669 17.2369C25.6793 17.2369 26.7567 16.2703 26.7567 14.7245C26.7567 13.1787 25.6518 12.2383 23.8842 12.2383Z" fill="white"/>
</g>
<path d="M73.84 10.36C75.6267 10.36 77.16 10.64 78.44 11.2C79.7467 11.76 80.7333 12.5733 81.4 13.64C82.0933 14.68 82.44 15.8933 82.44 17.28C82.44 18.5333 82.16 19.5867 81.6 20.44C81.0667 21.2933 80.2133 22.04 79.04 22.68V22.76C80.6133 23.2933 81.8 24.1333 82.6 25.28C83.4267 26.4267 83.84 27.8533 83.84 29.56C83.84 31.24 83.4 32.72 82.52 34C81.6667 35.28 80.5067 36.2667 79.04 36.96C77.5733 37.6533 75.9733 38 74.24 38H58.32V10.36H73.84ZM71.52 21.32C72.48 21.32 73.16 21.1467 73.56 20.8C73.9867 20.4533 74.2 19.8533 74.2 19C74.2 18.2 73.96 17.6 73.48 17.2C73 16.8 72.3467 16.6 71.52 16.6H67.04V21.32H71.52ZM72 31.76C73.04 31.76 73.8133 31.5067 74.32 31C74.8533 30.4667 75.12 29.72 75.12 28.76C75.12 27.88 74.8667 27.2133 74.36 26.76C73.88 26.3067 73.2133 26.08 72.36 26.08H67.04V31.76H72ZM93.9825 28.72C93.9825 29.92 94.1958 30.8 94.6225 31.36C95.0758 31.92 95.7425 32.2 96.6225 32.2C97.5292 32.2 98.2092 31.92 98.6625 31.36C99.1158 30.8 99.3425 29.92 99.3425 28.72V17.24H107.263V38H99.6225V35.36H99.5425C98.7958 36.4267 97.8892 37.2267 96.8225 37.76C95.7558 38.2667 94.4625 38.52 92.9425 38.52C91.6625 38.52 90.4892 38.24 89.4225 37.68C88.3825 37.0933 87.5558 36.28 86.9425 35.24C86.3558 34.1733 86.0625 32.96 86.0625 31.6V17.24H93.9825V28.72ZM122.048 22.92C122.022 22.3867 121.768 21.96 121.288 21.64C120.808 21.2933 120.235 21.12 119.568 21.12C118.102 21.12 117.368 21.6267 117.368 22.64C117.368 23.0133 117.488 23.3333 117.728 23.6C117.995 23.8667 118.368 24.0533 118.848 24.16L122.328 24.84C124.942 25.3467 126.835 26.1067 128.008 27.12C129.208 28.1333 129.808 29.5067 129.808 31.24C129.808 33.64 128.915 35.4533 127.128 36.68C125.342 37.9067 122.835 38.52 119.608 38.52C117.688 38.52 115.955 38.2667 114.408 37.76C112.888 37.2533 111.675 36.4933 110.768 35.48C109.862 34.44 109.395 33.1733 109.368 31.68H116.928C117.062 32.9867 117.982 33.64 119.688 33.64C121.368 33.64 122.208 33.1333 122.208 32.12C122.208 31.56 121.955 31.1467 121.448 30.88C120.942 30.5867 120.102 30.32 118.928 30.08L116.168 29.52C113.982 29.0933 112.368 28.3733 111.328 27.36C110.288 26.32 109.768 24.9867 109.768 23.36C109.768 21.7867 110.235 20.5067 111.168 19.52C112.128 18.5333 113.328 17.8267 114.768 17.4C116.235 16.9467 117.768 16.72 119.368 16.72C122.435 16.72 124.822 17.24 126.528 18.28C128.262 19.32 129.155 20.8667 129.208 22.92H122.048ZM140.304 10.8C140.304 11.52 140.117 12.1733 139.744 12.76C139.397 13.32 138.904 13.7733 138.264 14.12C137.624 14.44 136.904 14.6 136.104 14.6C135.304 14.6 134.584 14.44 133.944 14.12C133.304 13.7733 132.797 13.32 132.424 12.76C132.077 12.1733 131.904 11.52 131.904 10.8C131.904 10.08 132.077 9.44 132.424 8.88C132.797 8.29333 133.304 7.84 133.944 7.52C134.584 7.17333 135.304 7 136.104 7C136.904 7 137.624 7.17333 138.264 7.52C138.904 7.84 139.397 8.29333 139.744 8.88C140.117 9.44 140.304 10.08 140.304 10.8ZM140.064 17.24V38H132.144V17.24H140.064ZM164.678 38H156.758V26.52C156.758 25.32 156.531 24.44 156.078 23.88C155.651 23.32 154.998 23.04 154.118 23.04C153.211 23.04 152.531 23.32 152.078 23.88C151.625 24.44 151.398 25.32 151.398 26.52V38H143.478V17.24H151.158V19.88H151.198C151.945 18.8133 152.851 18.0267 153.918 17.52C155.011 16.9867 156.305 16.72 157.798 16.72C159.105 16.72 160.278 17.0133 161.318 17.6C162.385 18.1867 163.211 19 163.798 20.04C164.385 21.08 164.678 22.2667 164.678 23.6V38ZM189.344 29.4H174.584C174.637 30.7067 174.997 31.7067 175.664 32.4C176.357 33.0933 177.291 33.44 178.464 33.44C179.264 33.44 179.944 33.32 180.504 33.08C181.091 32.84 181.491 32.4667 181.704 31.96H188.904C188.291 34.04 187.037 35.6533 185.144 36.8C183.277 37.9467 180.917 38.52 178.064 38.52C175.931 38.52 174.024 38.1067 172.344 37.28C170.691 36.4267 169.384 35.1867 168.424 33.56C167.491 31.9333 167.024 29.9733 167.024 27.68C167.024 25.68 167.477 23.8533 168.384 22.2C169.317 20.52 170.624 19.1867 172.304 18.2C173.984 17.2133 175.917 16.72 178.104 16.72C181.837 16.72 184.637 17.76 186.504 19.84C188.397 21.92 189.344 25.08 189.344 29.32V29.4ZM181.784 25.28C181.811 24.6133 181.677 24.0267 181.384 23.52C181.117 22.9867 180.717 22.5733 180.184 22.28C179.677 21.96 179.077 21.8 178.384 21.8C177.317 21.8 176.451 22.0933 175.784 22.68C175.144 23.2667 174.744 24.1333 174.584 25.28H181.784ZM203.186 22.92C203.159 22.3867 202.906 21.96 202.426 21.64C201.946 21.2933 201.373 21.12 200.706 21.12C199.239 21.12 198.506 21.6267 198.506 22.64C198.506 23.0133 198.626 23.3333 198.866 23.6C199.133 23.8667 199.506 24.0533 199.986 24.16L203.466 24.84C206.079 25.3467 207.973 26.1067 209.146 27.12C210.346 28.1333 210.946 29.5067 210.946 31.24C210.946 33.64 210.053 35.4533 208.266 36.68C206.479 37.9067 203.973 38.52 200.746 38.52C198.826 38.52 197.093 38.2667 195.546 37.76C194.026 37.2533 192.813 36.4933 191.906 35.48C190.999 34.44 190.533 33.1733 190.506 31.68H198.066C198.199 32.9867 199.119 33.64 200.826 33.64C202.506 33.64 203.346 33.1333 203.346 32.12C203.346 31.56 203.093 31.1467 202.586 30.88C202.079 30.5867 201.239 30.32 200.066 30.08L197.306 29.52C195.119 29.0933 193.506 28.3733 192.466 27.36C191.426 26.32 190.906 24.9867 190.906 23.36C190.906 21.7867 191.373 20.5067 192.306 19.52C193.266 18.5333 194.466 17.8267 195.906 17.4C197.373 16.9467 198.906 16.72 200.506 16.72C203.573 16.72 205.959 17.24 207.666 18.28C209.399 19.32 210.293 20.8667 210.346 22.92H203.186ZM224.681 22.92C224.655 22.3867 224.401 21.96 223.921 21.64C223.441 21.2933 222.868 21.12 222.201 21.12C220.735 21.12 220.001 21.6267 220.001 22.64C220.001 23.0133 220.121 23.3333 220.361 23.6C220.628 23.8667 221.001 24.0533 221.481 24.16L224.961 24.84C227.575 25.3467 229.468 26.1067 230.641 27.12C231.841 28.1333 232.441 29.5067 232.441 31.24C232.441 33.64 231.548 35.4533 229.761 36.68C227.975 37.9067 225.468 38.52 222.241 38.52C220.321 38.52 218.588 38.2667 217.041 37.76C215.521 37.2533 214.308 36.4933 213.401 35.48C212.495 34.44 212.028 33.1733 212.001 31.68H219.561C219.695 32.9867 220.615 33.64 222.321 33.64C224.001 33.64 224.841 33.1333 224.841 32.12C224.841 31.56 224.588 31.1467 224.081 30.88C223.575 30.5867 222.735 30.32 221.561 30.08L218.801 29.52C216.615 29.0933 215.001 28.3733 213.961 27.36C212.921 26.32 212.401 24.9867 212.401 23.36C212.401 21.7867 212.868 20.5067 213.801 19.52C214.761 18.5333 215.961 17.8267 217.401 17.4C218.868 16.9467 220.401 16.72 222.001 16.72C225.068 16.72 227.455 17.24 229.161 18.28C230.895 19.32 231.788 20.8667 231.841 22.92H224.681Z" fill="#0A2885"/>
<defs>
<clipPath id="clip0_718_21790">
<rect width="48" height="48" fill="white"/>
</clipPath>
</defs>
</svg>
