<svg width="158" height="40" viewBox="0 0 158 40" fill="none" xmlns="http://www.w3.org/2000/svg">
<path d="M0 20C0 31 9 40 20 40C31 40 40 31 40 20C40 9 31 0 20 0C9 0 0 9 0 20Z" fill="#0078AD"/>
<path d="M26.1999 14.9999C25.2999 13.5999 24.0999 12.4999 22.5999 11.8999C21.0999 11.1999 19.4999 11.0999 17.7999 11.3999C16.0999 11.6999 14.6999 12.4999 13.5999 13.5999C12.3999 14.7999 11.6999 16.1999 11.3999 17.7999C10.0999 18.1999 8.99989 19.0999 8.39989 20.1999C7.69989 21.2999 7.39989 22.6999 7.59989 23.9999C7.79989 25.2999 8.49989 26.4999 9.49989 27.3999C10.4999 28.2999 11.7999 28.6999 13.0999 28.6999H25.5999C27.3999 28.6999 29.1999 28.0999 30.5999 26.8999C31.8999 25.6999 32.7999 23.9999 32.7999 22.0999C32.7999 20.2999 32.1999 18.4999 30.9999 17.0999C29.7999 15.7999 28.0999 14.8999 26.1999 14.8999V14.9999Z" fill="white"/>
<path d="M51.9004 22.1001C51.9004 22.7001 51.9004 23.1001 51.7004 23.5001C51.6004 23.8001 51.4004 24.1001 51.2004 24.3001C51.0004 24.5001 50.6004 24.6001 50.2004 24.6001C49.6004 24.6001 49.1004 24.4001 48.8004 24.1001C48.5004 23.7001 48.4004 23.2001 48.4004 22.3001H44.9004V22.6001C44.9004 23.7001 45.1004 24.6001 45.5004 25.3001C45.9004 26.1001 46.5004 26.6001 47.3004 27.1001C48.1004 27.5001 49.1004 27.7001 50.2004 27.7001C51.3004 27.7001 52.5004 27.5001 53.3004 27.1001C54.1004 26.7001 54.7004 26.1001 55.1004 25.2001C55.5004 24.4001 55.7004 23.3001 55.7004 22.1001V11.6001H51.8004V22.1001H51.9004Z" fill="black"/>
<path d="M60.8008 10.6C60.5008 10.4 60.1008 10.3 59.8008 10.3C59.5008 10.3 59.0008 10.3 58.7008 10.6C58.4008 10.8 58.2008 11 58.0008 11.3C57.8008 11.6 57.8008 11.9 57.8008 12.3C57.8008 12.7 57.8008 13 58.0008 13.3C58.2008 13.6 58.4008 13.8 58.7008 14C59.0008 14.2 59.4008 14.2 59.7008 14.2C60.0008 14.2 60.5008 14.2 60.7008 14C61.0008 13.8 61.2008 13.6 61.4008 13.3C61.6008 13 61.7008 12.7 61.7008 12.3C61.7008 11.9 61.7008 11.6 61.4008 11.3C61.2008 11 61.0008 10.8 60.7008 10.6H60.8008Z" fill="black"/>
<path d="M61.5 15.5H58V27.3H61.5V15.5Z" fill="black"/>
<path d="M72.3006 16C71.4006 15.5 70.3006 15.2 69.1006 15.2C67.9006 15.2 66.8006 15.5 65.9006 16C65.0006 16.5 64.3006 17.2 63.8006 18.2C63.3006 19.1 63.1006 20.2 63.1006 21.5C63.1006 22.8 63.3006 23.8 63.8006 24.8C64.3006 25.7 65.0006 26.5 65.9006 27C66.8006 27.5 67.9006 27.8 69.1006 27.8C70.3006 27.8 71.4006 27.5 72.3006 27C73.2006 26.5 73.9006 25.8 74.4006 24.8C74.9006 23.9 75.2006 22.8 75.2006 21.5C75.2006 20.2 75.0006 19.2 74.5006 18.3C74.0006 17.4 73.3006 16.6 72.4006 16.1L72.3006 16ZM71.3006 23.3C71.1006 23.8 70.8006 24.2 70.5006 24.5C70.1006 24.8 69.7006 24.9 69.2006 24.9C68.7006 24.9 68.2006 24.8 67.9006 24.5C67.5006 24.2 67.3006 23.8 67.1006 23.3C66.9006 22.8 66.8006 22.1 66.8006 21.4C66.8006 20.7 66.8006 20 67.1006 19.5C67.3006 19 67.6006 18.6 67.9006 18.3C68.3006 18 68.7006 17.9 69.2006 17.9C69.7006 17.9 70.2006 18.1 70.6006 18.4C71.0006 18.7 71.2006 19.1 71.4006 19.6C71.6006 20.1 71.7006 20.8 71.7006 21.5C71.7006 22.2 71.7006 22.9 71.4006 23.4L71.3006 23.3Z" fill="black"/>
<path d="M81.2008 11.6001L75.3008 27.3001H79.2008L80.3008 24.1001H85.9008L86.9008 27.3001H91.0008L85.2008 11.6001H81.2008ZM81.2008 21.3001L83.1008 15.6001L84.9008 21.3001H81.1008H81.2008Z" fill="black"/>
<path d="M95.7008 11.6001H91.8008V27.3001H95.7008V11.6001Z" fill="black"/>
<path d="M107.9 23.2C107.6 23.6 107.3 23.9 106.8 24.1C106.4 24.3 105.9 24.4 105.3 24.4C104.4 24.4 103.7 24.2 103.1 23.8C102.5 23.4 102.1 22.8 101.8 22C101.5 21.2 101.4 20.4 101.4 19.4C101.4 18.4 101.5 17.5 101.8 16.8C102.1 16.1 102.5 15.5 103.1 15.1C103.7 14.7 104.4 14.5 105.2 14.5C106 14.5 106.2 14.5 106.6 14.8C107 15 107.4 15.2 107.7 15.6C108 15.9 108.2 16.3 108.3 16.8H112.1C111.9 15.6 111.6 14.7 110.9 13.9C110.3 13.1 109.5 12.5 108.5 12.1C107.5 11.7 106.4 11.5 105.2 11.5C104 11.5 102.2 11.9 101 12.6C99.8004 13.3 98.9004 14.3 98.3004 15.5C97.7004 16.7 97.4004 18.2 97.4004 19.7C97.4004 21.2 97.7004 22.7 98.3004 24C98.9004 25.2 99.8004 26.2 101 26.9C102.2 27.6 103.6 27.9 105.2 27.9C106.8 27.9 107.7 27.6 108.7 27.1C109.7 26.6 110.6 25.9 111.2 25C111.8 24.1 112.2 23.1 112.3 21.9H108.4C108.4 22.5 108.1 23 107.9 23.4V23.2Z" fill="black"/>
<path d="M117.4 11.1001H113.9V27.3001H117.4V11.1001Z" fill="black"/>
<path d="M128.2 16C127.3 15.5 126.2 15.2 125 15.2C123.8 15.2 122.7 15.5 121.8 16C120.9 16.5 120.2 17.2 119.7 18.2C119.2 19.1 119 20.2 119 21.5C119 22.8 119.2 23.8 119.7 24.8C120.2 25.7 120.9 26.5 121.8 27C122.7 27.5 123.8 27.8 125 27.8C126.2 27.8 127.3 27.5 128.2 27C129.1 26.5 129.8 25.8 130.3 24.8C130.8 23.9 131.1 22.8 131.1 21.5C131.1 20.2 130.9 19.2 130.4 18.3C129.9 17.4 129.2 16.6 128.3 16.1L128.2 16ZM127.2 23.3C127 23.8 126.7 24.2 126.4 24.5C126 24.8 125.6 24.9 125.1 24.9C124.6 24.9 124.1 24.8 123.8 24.5C123.4 24.2 123.2 23.8 123 23.3C122.8 22.8 122.7 22.1 122.7 21.4C122.7 20.7 122.7 20 123 19.5C123.2 19 123.5 18.6 123.8 18.3C124.2 18 124.6 17.9 125.1 17.9C125.6 17.9 126.1 18.1 126.5 18.4C126.9 18.7 127.1 19.1 127.3 19.6C127.5 20.1 127.6 20.8 127.6 21.5C127.6 22.2 127.6 22.9 127.3 23.4L127.2 23.3Z" fill="black"/>
<path d="M140.101 22.1C140.101 23 139.901 23.7 139.601 24.1C139.301 24.5 138.701 24.7 138.101 24.7C137.501 24.7 136.901 24.5 136.601 24.1C136.301 23.7 136.101 23 136.101 22.1V15.5H132.601V23.1C132.601 24.6 132.901 25.8 133.601 26.5C134.301 27.2 135.401 27.6 136.701 27.6C138.001 27.6 138.201 27.4 138.701 27.1C139.301 26.8 139.801 26.3 140.201 25.7V27.3H143.601V15.5H140.101V22.1Z" fill="black"/>
<path d="M153.501 11.1001V17.1001C153.201 16.5001 152.701 16.1001 152.101 15.8001C151.501 15.5001 150.801 15.3001 150.101 15.3001C149.101 15.3001 148.201 15.6001 147.401 16.1001C146.701 16.6001 146.101 17.3001 145.701 18.3001C145.301 19.2001 145.101 20.3001 145.101 21.5001C145.101 22.7001 145.301 23.7001 145.701 24.7001C146.101 25.6001 146.601 26.4001 147.401 27.0001C148.201 27.6001 149.101 27.8001 150.101 27.8001C151.101 27.8001 151.601 27.6001 152.201 27.3001C152.801 27.0001 153.301 26.5001 153.601 25.9001V27.4001H157.001V11.1001H153.401H153.501ZM153.301 23.3001C153.101 23.8001 152.801 24.2001 152.501 24.5001C152.201 24.8001 151.701 24.9001 151.101 24.9001C150.501 24.9001 150.101 24.7001 149.801 24.4001C149.401 24.1001 149.201 23.7001 149.001 23.1001C148.801 22.6001 148.701 21.9001 148.701 21.3001C148.701 20.7001 148.701 19.9001 149.001 19.4001C149.201 18.9001 149.501 18.5001 149.801 18.2001C150.101 17.9001 150.601 17.8001 151.101 17.8001C151.601 17.8001 152.101 17.9001 152.501 18.2001C152.901 18.5001 153.201 18.9001 153.301 19.4001C153.501 19.9001 153.601 20.5001 153.601 21.3001C153.601 22.1001 153.601 22.7001 153.301 23.2001V23.3001Z" fill="black"/>
</svg>
