<svg width="126" height="32" viewBox="0 0 126 32" fill="none" xmlns="http://www.w3.org/2000/svg">
<g clip-path="url(#clip0_2503_3398)">
<path d="M0 16C0 24.8 7.2 32 16 32C24.8 32 32 24.8 32 16C32 7.2 24.8 0 16 0C7.2 0 0 7.2 0 16Z" fill="#0078AD"/>
<path d="M21.0004 11.9999C20.3004 10.8999 19.3004 9.99994 18.1004 9.49994C16.9004 8.99994 15.6004 8.79994 14.3004 9.09994C13.0004 9.29994 11.8004 9.99994 10.9004 10.8999C10.0004 11.7999 9.40039 12.9999 9.10039 14.2999C8.10039 14.5999 7.20039 15.2999 6.70039 16.1999C6.10039 17.0999 5.90039 18.1999 6.10039 19.1999C6.30039 20.2999 6.80039 21.1999 7.60039 21.8999C8.40039 22.5999 9.40039 22.9999 10.5004 22.9999H20.5004C22.0004 22.9999 23.4004 22.5999 24.5004 21.5999C25.6004 20.5999 26.2004 19.1999 26.3004 17.7999C26.3004 16.2999 25.9004 14.8999 24.9004 13.7999C23.9004 12.6999 22.5004 12.0999 21.1004 11.9999H21.0004Z" fill="white"/>
<path d="M40.2 22.1C39.3 22.1 38.5 21.9 37.9 21.6C37.3 21.3 36.8 20.8 36.5 20.2C36.2 19.6 36 18.9 36 18V17.7H38.8C38.8 18.3 38.9 18.8 39.1 19.1C39.3 19.4 39.7 19.5 40.2 19.5C40.7 19.5 40.8 19.5 41 19.3C41.2 19.2 41.3 18.9 41.4 18.7C41.4 18.4 41.5 18.1 41.5 17.6V9.19995H44.6V17.6C44.6 18.6 44.4 19.4 44.1 20.1C43.8 20.8 43.3 21.3 42.6 21.6C41.9 21.9 41.1 22.1 40.1 22.1H40.2Z" fill="#020202"/>
<path d="M46.4002 12.4H49.2002V21.8H46.4002V12.4ZM47.8002 11.3C47.5002 11.3 47.2002 11.3 47.0002 11.1C46.8002 11 46.6002 10.8 46.4002 10.6C46.3002 10.4 46.2002 10.1 46.2002 9.80005C46.2002 9.50005 46.2002 9.30005 46.4002 9.00005C46.5002 8.80005 46.7002 8.60005 47.0002 8.50005C47.2002 8.40005 47.5002 8.30005 47.9002 8.30005C48.3002 8.30005 48.5002 8.30005 48.7002 8.50005C48.9002 8.60005 49.1002 8.80005 49.2002 9.00005C49.3002 9.20005 49.4002 9.50005 49.4002 9.80005C49.4002 10.1 49.4002 10.3 49.2002 10.6C49.1002 10.8 48.9002 11 48.6002 11.1C48.4002 11.2 48.1002 11.3 47.8002 11.3Z" fill="#020202"/>
<path d="M55.3004 22.1C54.3004 22.1 53.4004 21.9 52.7004 21.5C52.0004 21.1 51.4004 20.5 51.0004 19.8C50.6004 19 50.4004 18.2 50.4004 17.2C50.4004 16.2 50.6004 15.4 51.0004 14.6C51.4004 13.8 51.9004 13.3 52.7004 12.9C53.4004 12.5 54.3004 12.3 55.3004 12.3C56.3004 12.3 57.1004 12.5 57.9004 12.9C58.6004 13.3 59.2004 13.9 59.6004 14.6C60.0004 15.3 60.2004 16.2 60.2004 17.2C60.2004 18.2 60.0004 19.1 59.6004 19.8C59.2004 20.5 58.7004 21.1 57.9004 21.5C57.2004 21.9 56.3004 22.1 55.4004 22.1H55.3004ZM55.3004 20C55.7004 20 56.1004 19.9 56.4004 19.7C56.7004 19.5 56.9004 19.1 57.1004 18.7C57.2004 18.3 57.3004 17.8 57.3004 17.2C57.3004 16.6 57.3004 16.1 57.1004 15.7C57.0004 15.3 56.7004 14.9 56.4004 14.7C56.1004 14.5 55.7004 14.3 55.3004 14.3C54.9004 14.3 54.5004 14.4 54.2004 14.6C53.9004 14.8 53.7004 15.1 53.5004 15.6C53.4004 16 53.3004 16.5 53.3004 17.1C53.3004 17.7 53.3004 18.2 53.5004 18.6C53.7004 19 53.9004 19.4 54.2004 19.6C54.5004 19.8 54.8004 19.9 55.3004 19.9V20Z" fill="#020202"/>
<path d="M65.0004 9.30005H68.2004L72.8004 21.9H69.5004L66.6004 12.6L63.5004 21.9H60.4004L65.1004 9.30005H65.0004ZM64.6004 17.1H68.3004L69.0004 19.3H63.9004L64.6004 17.1Z" fill="#020202"/>
<path d="M73.5 9.30005H76.6V21.9H73.5V9.30005Z" fill="#020202"/>
<path d="M84.2004 22.1C82.9004 22.1 81.8004 21.8 80.8004 21.3C79.9004 20.7 79.1004 19.9 78.6004 19C78.1004 18 77.9004 16.9 77.9004 15.6C77.9004 14.3 78.1004 13.2 78.6004 12.2C79.1004 11.2 79.8004 10.4 80.8004 9.9C81.7004 9.3 82.9004 9 84.1004 9C85.3004 9 86.0004 9.2 86.8004 9.5C87.6004 9.8 88.2004 10.3 88.7004 11C89.2004 11.6 89.5004 12.4 89.6004 13.3H86.5004C86.5004 12.9 86.3004 12.6 86.0004 12.4C85.8004 12.1 85.5004 11.9 85.1004 11.8C84.8004 11.7 84.4004 11.6 84.0004 11.6C83.3004 11.6 82.8004 11.8 82.3004 12.1C81.8004 12.4 81.5004 12.9 81.3004 13.5C81.1004 14.1 81.0004 14.8 81.0004 15.6C81.0004 16.4 81.1004 17.1 81.3004 17.7C81.5004 18.3 81.9004 18.8 82.3004 19.1C82.8004 19.4 83.4004 19.6 84.0004 19.6C84.6004 19.6 84.9004 19.6 85.2004 19.3C85.6004 19.1 85.9004 18.9 86.1004 18.6C86.3004 18.3 86.5004 17.9 86.5004 17.4H89.6004C89.6004 18.3 89.2004 19.1 88.7004 19.9C88.2004 20.6 87.6004 21.2 86.7004 21.6C85.9004 22 84.9004 22.2 83.9004 22.2L84.2004 22.1Z" fill="#020202"/>
<path d="M91.0996 8.8999H93.8996V21.8999H91.0996V8.8999Z" fill="#020202"/>
<path d="M99.9996 22.1C98.9996 22.1 98.0996 21.9 97.3996 21.5C96.6996 21.1 96.0996 20.5 95.6996 19.8C95.2996 19 95.0996 18.2 95.0996 17.2C95.0996 16.2 95.2996 15.4 95.6996 14.6C96.0996 13.8 96.5996 13.3 97.3996 12.9C98.0996 12.5 98.9996 12.3 99.9996 12.3C101 12.3 101.8 12.5 102.6 12.9C103.3 13.3 103.9 13.9 104.3 14.6C104.7 15.3 104.9 16.2 104.9 17.2C104.9 18.2 104.7 19.1 104.3 19.8C103.9 20.5 103.4 21.1 102.6 21.5C101.9 21.9 101 22.1 100.1 22.1H99.9996ZM99.9996 20C100.4 20 100.8 19.9 101.1 19.7C101.4 19.5 101.6 19.1 101.8 18.7C101.9 18.3 102 17.8 102 17.2C102 16.6 102 16.1 101.8 15.7C101.7 15.3 101.4 14.9 101.1 14.7C100.8 14.5 100.4 14.3 99.9996 14.3C99.5996 14.3 99.1996 14.4 98.8996 14.6C98.5996 14.8 98.3996 15.1 98.1996 15.6C98.0996 16 97.9996 16.5 97.9996 17.1C97.9996 17.7 97.9996 18.2 98.1996 18.6C98.3996 19 98.5996 19.4 98.8996 19.6C99.1996 19.8 99.4996 19.9 99.9996 19.9V20Z" fill="#020202"/>
<path d="M109.3 22.0999C108.2 22.0999 107.4 21.7999 106.8 21.1999C106.2 20.5999 106 19.6999 106 18.4999V12.3999H108.8V17.6999C108.8 18.3999 108.9 18.9999 109.2 19.2999C109.5 19.5999 109.9 19.7999 110.4 19.7999C110.9 19.7999 111.4 19.5999 111.6 19.2999C111.9 18.9999 112 18.3999 112 17.6999V12.3999H114.8V21.7999H112.1V20.4999C111.8 20.9999 111.4 21.3999 110.9 21.5999C110.4 21.8999 109.9 21.9999 109.3 21.9999V22.0999Z" fill="#020202"/>
<path d="M120 22.1C119.2 22.1 118.4 21.9 117.8 21.4C117.2 21 116.8 20.4 116.5 19.6C116.2 18.8 116 18 116 17.1C116 16.2 116.2 15.3 116.5 14.6C116.8 13.9 117.3 13.3 117.8 12.9C118.4 12.5 119.1 12.3 119.9 12.3C120.7 12.3 121 12.4 121.5 12.7C122 13 122.4 13.3 122.6 13.8V9H125.5V22H122.8V20.8C122.5 21.3 122.1 21.7 121.7 21.9C121.3 22.1 120.7 22.3 120 22.3V22.1ZM120.9 20C121.3 20 121.7 19.9 122 19.7C122.3 19.5 122.5 19.1 122.7 18.7C122.9 18.3 122.9 17.7 122.9 17.2C122.9 16.7 122.9 16.1 122.7 15.7C122.6 15.3 122.3 14.9 122 14.7C121.7 14.5 121.3 14.4 120.9 14.4C120.5 14.4 120.1 14.5 119.8 14.7C119.5 14.9 119.3 15.3 119.1 15.7C119 16.1 118.9 16.6 118.9 17.2C118.9 17.8 118.9 18.2 119.1 18.7C119.2 19.1 119.5 19.5 119.8 19.7C120.1 19.9 120.4 20.1 120.9 20.1V20Z" fill="#020202"/>
</g>
<defs>
<clipPath id="clip0_2503_3398">
<rect width="126" height="32" fill="white"/>
</clipPath>
</defs>
</svg>
